<svg id="Layer_1" data-name="Layer 1" xmlns="http://www.w3.org/2000/svg" xmlns:xlink="http://www.w3.org/1999/xlink" viewBox="0 0 543.43 144"><defs><style>.cls-1{fill:#54595f;}.cls-2{fill:url(#linear-gradient);}.cls-3{fill:#a3dbea;}.cls-4{fill:#fff;}</style><linearGradient id="linear-gradient" x1="21.09" y1="21.09" x2="122.91" y2="122.91" gradientUnits="userSpaceOnUse"><stop offset="0" stop-color="#2795c3"/><stop offset="1" stop-color="#48b6cb"/></linearGradient></defs><title>Artboard 1</title><path class="cls-1" d="M172.29,64.26A4.78,4.78,0,0,1,172,62.9a3.6,3.6,0,0,1,3.71-3.53A3.66,3.66,0,0,1,179.24,62l6.52,20.13,6.57-20A3.82,3.82,0,0,1,196,59.28h.57a3.76,3.76,0,0,1,3.66,2.86l6.57,20L213.31,62a3.62,3.62,0,0,1,3.47-2.59,3.49,3.49,0,0,1,3.57,3.48,5.11,5.11,0,0,1-.28,1.41l-9.2,25.81a4,4,0,0,1-3.75,3h-.75a3.89,3.89,0,0,1-3.71-3l-6.48-18.82L189.7,90.07a3.89,3.89,0,0,1-3.7,3h-.76a4,4,0,0,1-3.75-3Z"/><path class="cls-1" d="M225.5,88.9V63.27a3.59,3.59,0,0,1,3.62-3.61h18.21a3.24,3.24,0,0,1,3.23,3.24,3.2,3.2,0,0,1-3.23,3.19H232.68v6.66h12.53A3.25,3.25,0,0,1,248.45,76a3.2,3.2,0,0,1-3.24,3.19H232.68v6.9h14.88a3.25,3.25,0,0,1,3.24,3.24,3.21,3.21,0,0,1-3.24,3.19H229.12A3.59,3.59,0,0,1,225.5,88.9Z"/><path class="cls-1" d="M257.14,63a3.61,3.61,0,1,1,7.22,0V85.94h13.38a3.29,3.29,0,1,1,0,6.57h-17a3.58,3.58,0,0,1-3.61-3.61Z"/><path class="cls-1" d="M285.78,63A3.62,3.62,0,1,1,293,63V85.94h13.37a3.29,3.29,0,1,1,0,6.57h-17a3.58,3.58,0,0,1-3.61-3.61Z"/><path class="cls-1" d="M314.42,63.27A3.58,3.58,0,0,1,318,59.66h9.2c10.33,0,17.46,7.08,17.46,16.33v.09c0,9.25-7.13,16.43-17.46,16.43H318a3.59,3.59,0,0,1-3.61-3.61ZM327.23,86c5.92,0,9.91-4,9.91-9.81v-.1c0-5.82-4-9.9-9.91-9.9h-5.58V86Z"/><path class="cls-1" d="M366,61a1.18,1.18,0,1,1,2.36,0V74.67h20.31V61A1.18,1.18,0,1,1,391,61V90.72a1.18,1.18,0,1,1-2.36,0V76.85H368.33V90.72a1.18,1.18,0,1,1-2.36,0Z"/><path class="cls-1" d="M400.61,90.54V61.16A1.2,1.2,0,0,1,401.79,60h20.49a1.09,1.09,0,1,1,0,2.18H403V74.63h17.27a1.09,1.09,0,1,1,0,2.17H403V89.54h19.54a1.09,1.09,0,1,1,0,2.18H401.79A1.2,1.2,0,0,1,400.61,90.54Z"/><path class="cls-1" d="M429.38,90.18,442.93,60.8a1.67,1.67,0,0,1,1.59-1.14h.09a1.67,1.67,0,0,1,1.59,1.14l13.51,29.29a1.59,1.59,0,0,1,.18.72,1.11,1.11,0,0,1-1.13,1.09,1.35,1.35,0,0,1-1.18-.91l-3.72-8.16H435.13L431.42,91a1.21,1.21,0,0,1-1.14.86,1.06,1.06,0,0,1-1.09-1A1.64,1.64,0,0,1,429.38,90.18Zm23.48-9.48-8.34-18.36L436.13,80.7Z"/><path class="cls-1" d="M466.53,61a1.18,1.18,0,1,1,2.36,0V89.54h17.72a1.09,1.09,0,0,1,0,2.18h-18.9a1.2,1.2,0,0,1-1.18-1.18Z"/><path class="cls-1" d="M498.35,62.16H488.19a1.09,1.09,0,1,1,0-2.18h22.67a1.09,1.09,0,0,1,0,2.18H500.7V90.72a1.18,1.18,0,1,1-2.35,0Z"/><path class="cls-1" d="M518.41,61a1.18,1.18,0,1,1,2.35,0V74.67h20.31V61a1.18,1.18,0,1,1,2.36,0V90.72a1.18,1.18,0,0,1-2.36,0V76.85H520.76V90.72a1.18,1.18,0,1,1-2.35,0Z"/><circle class="cls-2" cx="72" cy="72" r="72"/><path class="cls-3" d="M125.64,54.59a4.9,4.9,0,0,0-9.6-1.41h0l-5.19,15.35H91.93L95.71,57c1-3.05,3.87-10-6-13.09L71.74,97.31a4.73,4.73,0,0,1-3.3,3.17c-3.12.7-5.16-2.09-5.16-2.09s2.23,6.16,10.08,5.5c6.87-.57,9.33-8.24,9.33-8.24l6-17.47h18.89l-4.18,12.24c0,.11-.07.22-.11.33v0h0a4.86,4.86,0,0,0-.29,1.58A4.91,4.91,0,0,0,112.49,94h0l12.85-37.81h0A4.91,4.91,0,0,0,125.64,54.59Z"/><path class="cls-4" d="M89,43.75C81.2,42.4,77.67,49,76.39,53.12c-3,9.49-9.09,28.53-9.09,28.53L58.21,54.11a6.14,6.14,0,0,0-11.76-.41h0l-9.22,28-6.85-22.4-1.77-5.79a5.21,5.21,0,0,0-10.22,1.42,5.06,5.06,0,0,0,.31,1.74h0l.89,2.61L31,93h0a6.31,6.31,0,0,0,12-.32l9.08-26.34L63.28,98.39a5,5,0,0,0,5.16,2.09c2.58-.53,3.49-3.57,3.49-3.57s13.34-39.55,14.86-44,3.27-5.87,5.47-6a5,5,0,0,1,3.9,1.59A9.7,9.7,0,0,0,89,43.75Z"/></svg>